<?xml version="1.0" encoding="UTF-8"?>
<svg id="Layer_2" data-name="Layer 2" xmlns="http://www.w3.org/2000/svg" viewBox="0 0 281.86 76.33">
  <defs>
    <style>
      .cls-1 {
        fill: #1c1c1c;
      }

      .cls-2 {
        fill: #0077b6;
      }
    </style>
  </defs>
  <g id="Layer_2-2" data-name="Layer 2">
    <path class="cls-1" d="M111.97,8.27h-8.76v25.1c0,.64-.52,1.16-1.16,1.16h-7.17c-.64,0-1.16-.52-1.16-1.16V8.27h-8.81c-.64,0-1.16-.52-1.16-1.16V1.16c0-.64.52-1.16,1.16-1.16h27.05c.64,0,1.16.52,1.16,1.16v5.95c0,.64-.52,1.16-1.16,1.16Z"/>
    <path class="cls-1" d="M122.72,0h8.91c.5,0,.95.33,1.1.81l10.25,32.21c.24.75-.32,1.51-1.1,1.51h-7.15c-.53,0-.99-.35-1.12-.86l-1.33-5.03c-.13-.51-.59-.86-1.12-.86h-7.97c-.53,0-.99.35-1.12.86l-1.33,5.04c-.13.51-.59.86-1.12.86h-7.2c-.78,0-1.34-.76-1.1-1.51L121.62.81c.15-.48.6-.81,1.1-.81ZM130,19.99l-1.71-6.46c-.3-1.15-1.94-1.15-2.24,0l-1.71,6.46c-.19.73.36,1.45,1.12,1.45h3.41c.76,0,1.31-.72,1.12-1.45Z"/>
    <path class="cls-1" d="M146.82,33.37V1.16c0-.64.52-1.16,1.16-1.16h7.17c.64,0,1.16.52,1.16,1.16v23.94c0,.64.52,1.16,1.16,1.16h13.34c.64,0,1.16.52,1.16,1.16v5.95c0,.64-.52,1.16-1.16,1.16h-22.82c-.64,0-1.16-.52-1.16-1.16Z"/>
    <path class="cls-1" d="M200.36,27.42v5.95c0,.64-.52,1.16-1.16,1.16h-22.29c-.64,0-1.16-.52-1.16-1.16V1.16c0-.64.52-1.16,1.16-1.16h21.85c.64,0,1.16.52,1.16,1.16v5.95c0,.64-.52,1.16-1.16,1.16h-12.37c-.64,0-1.16.52-1.16,1.16v2.55c0,.64.52,1.16,1.16,1.16h10.23c.64,0,1.16.52,1.16,1.16v5.37c0,.64-.52,1.16-1.16,1.16h-10.23c-.64,0-1.16.52-1.16,1.16v3.13c0,.64.52,1.16,1.16,1.16h12.81c.64,0,1.16.52,1.16,1.16Z"/>
    <path class="cls-1" d="M214.75,20.83v12.54c0,.64-.52,1.16-1.16,1.16h-7.17c-.64,0-1.16-.52-1.16-1.16V1.16c0-.64.52-1.16,1.16-1.16h5.67c.35,0,.69.16.91.44l11.45,14.5c.68.86,2.07.38,2.07-.72V1.16c0-.64.52-1.16,1.16-1.16h7.17c.64,0,1.16.52,1.16,1.16v32.21c0,.64-.52,1.16-1.16,1.16h-5.83c-.35,0-.68-.16-.9-.43l-11.31-13.99c-.69-.85-2.06-.36-2.06.73Z"/>
    <path class="cls-1" d="M268.16,8.27h-7.6c-.64,0-1.16.52-1.16,1.16v23.94c0,.64-.52,1.16-1.16,1.16h-7.17c-.64,0-1.16-.52-1.16-1.16V9.43c0-.64-.52-1.16-1.16-1.16h-7.65c-.64,0-1.16-.52-1.16-1.16V1.16c0-.64.52-1.16,1.16-1.16h27.05c.64,0,1.16.52,1.16,1.16v5.95c0,.64-.52,1.16-1.16,1.16Z"/>
    <path class="cls-1" d="M109.89,51.83c-.3.58-1.02.78-1.6.47-.7-.38-1.36-.71-1.97-.99-.91-.4-1.89-.77-2.97-1.09-1.07-.32-2.12-.49-3.16-.49-.81,0-1.48.13-1.99.39s-.78.69-.78,1.3c0,.58.26,1.04.78,1.4.52.35,1.26.68,2.21.96s2.1.64,3.43,1.06c2.14.64,3.99,1.38,5.54,2.22s2.75,1.9,3.6,3.2c.84,1.3,1.26,3.03,1.26,5.18s-.37,3.78-1.12,5.18c-.75,1.4-1.75,2.51-3.01,3.35-1.27.84-2.68,1.44-4.23,1.81s-3.15.55-4.77.55-3.38-.17-5.18-.51c-1.8-.34-3.54-.81-5.23-1.41-1.3-.46-2.52-.99-3.65-1.58-.55-.29-.75-.98-.48-1.54l3.05-6.2c.3-.6,1.04-.81,1.62-.49.88.5,1.71.92,2.47,1.27,1.07.49,2.26.92,3.57,1.31,1.31.39,2.63.58,3.96.58,1.04,0,1.76-.13,2.16-.39.4-.26.61-.61.61-1.04,0-.68-.36-1.2-1.07-1.57-.71-.37-1.64-.72-2.79-1.06s-2.42-.73-3.82-1.18c-2.01-.68-3.66-1.44-4.96-2.29-1.3-.85-2.25-1.87-2.87-3.04-.62-1.17-.92-2.6-.92-4.27,0-2.54.6-4.67,1.8-6.37,1.2-1.71,2.78-3,4.74-3.89,1.96-.89,4.08-1.33,6.35-1.33,1.68,0,3.31.2,4.89.61,1.57.41,3.05.9,4.43,1.48.93.39,1.78.77,2.55,1.13.59.28.82,1,.52,1.58l-2.98,5.71Z"/>
    <path class="cls-1" d="M134.47,76.33c-2.63,0-5.01-.49-7.15-1.48-2.14-.99-3.98-2.32-5.52-3.99-1.54-1.67-2.72-3.55-3.55-5.64-.83-2.09-1.24-4.25-1.24-6.49s.44-4.49,1.31-6.56c.88-2.07,2.1-3.93,3.67-5.57s3.44-2.93,5.59-3.87c2.16-.94,4.51-1.41,7.08-1.41s5.01.5,7.15,1.48c2.14.99,3.97,2.33,5.49,4.01,1.52,1.69,2.7,3.57,3.53,5.67.83,2.09,1.24,4.24,1.24,6.44s-.43,4.44-1.29,6.52c-.86,2.07-2.08,3.93-3.65,5.57-1.57,1.64-3.43,2.93-5.57,3.89-2.14.96-4.51,1.43-7.1,1.43ZM126.64,58.83c0,1.17.16,2.29.49,3.38.32,1.09.81,2.06,1.46,2.92s1.47,1.54,2.46,2.04c.99.5,2.16.75,3.53.75s2.54-.26,3.55-.78c1-.52,1.82-1.22,2.46-2.12.63-.89,1.1-1.88,1.41-2.97.31-1.09.46-2.2.46-3.33s-.16-2.29-.49-3.35c-.33-1.07-.81-2.03-1.46-2.89-.65-.86-1.48-1.53-2.48-2.02-1.01-.49-2.17-.73-3.5-.73s-2.54.26-3.53.78c-.99.52-1.81,1.21-2.45,2.07-.65.86-1.13,1.83-1.44,2.92-.31,1.09-.46,2.2-.46,3.33Z"/>
    <path class="cls-1" d="M171.67,76.33c-2.76,0-5.12-.45-7.1-1.36-1.98-.91-3.59-2.15-4.84-3.74-1.25-1.59-2.16-3.41-2.75-5.46-.58-2.06-.88-4.22-.88-6.48v-16.57c0-.64.52-1.16,1.16-1.16h7.17c.64,0,1.16.52,1.16,1.16v16.56c0,1.13.11,2.22.34,3.25.23,1.03.58,1.96,1.07,2.77.49.81,1.11,1.45,1.87,1.92.76.47,1.69.7,2.79.7s2.09-.23,2.87-.7c.78-.47,1.4-1.12,1.87-1.94.47-.83.82-1.76,1.04-2.79.23-1.03.34-2.1.34-3.2v-16.56c0-.64.52-1.16,1.16-1.16h7.17c.64,0,1.16.52,1.16,1.16v16.57c0,2.4-.32,4.63-.95,6.7-.63,2.07-1.58,3.88-2.84,5.44-1.26,1.55-2.88,2.76-4.84,3.62-1.96.86-4.29,1.29-6.98,1.29Z"/>
    <path class="cls-1" d="M193.21,74.93v-32.21c0-.64.52-1.16,1.16-1.16h14.69c1.68,0,3.24.34,4.67,1.02,1.43.68,2.66,1.6,3.7,2.75,1.04,1.15,1.84,2.44,2.41,3.87.57,1.43.85,2.87.85,4.33,0,1.33-.2,2.61-.59,3.84-.39,1.23-.96,2.36-1.7,3.38-.55.75-1.18,1.43-1.89,2.04-.44.37-.57.98-.29,1.47l5.8,10.1c.44.77-.11,1.73-1,1.73h-7.73c-.41,0-.8-.22-1-.58l-5.41-9.44c-.21-.36-.59-.58-1-.58h-2.01c-.64,0-1.16.52-1.16,1.16v8.29c0,.64-.52,1.16-1.16,1.16h-7.17c-.64,0-1.16-.52-1.16-1.16ZM202.7,56.06c0,.64.52,1.16,1.16,1.16h4.82c.39,0,.76-.15,1.12-.44.36-.29.66-.71.9-1.26.24-.55.37-1.22.37-1.99s-.14-1.48-.41-2.02c-.28-.53-.62-.95-1.02-1.24s-.8-.44-1.19-.44h-4.58c-.64,0-1.16.52-1.16,1.16v5.08Z"/>
    <path class="cls-1" d="M281.86,68.98v5.95c0,.64-.52,1.16-1.16,1.16h-22.29c-.64,0-1.16-.52-1.16-1.16v-33.37h23.01c.64,0,1.16.52,1.16,1.16v5.95c0,.64-.52,1.16-1.16,1.16h-12.37c-.64,0-1.16.52-1.16,1.16v2.55c0,.64.52,1.16,1.16,1.16h10.23c.64,0,1.16.52,1.16,1.16v5.37c0,.64-.52,1.16-1.16,1.16h-11.39v4.29c0,.64.52,1.16,1.16,1.16h12.81c.64,0,1.16.52,1.16,1.16Z"/>
    <path class="cls-1" d="M238.69,65.96l13.02-17.04c.15-.2.24-.45.24-.7v-5.5c0-.64-.52-1.16-1.16-1.16h-24.04c-.64,0-1.16.52-1.16,1.16v5.95c0,.64.52,1.16,1.16,1.16h11.33c.98,0,1.51,1.13.9,1.89l-13.86,17c-.17.21-.26.47-.26.73v5.48c0,.64.52,1.16,1.16,1.16h4.65c.16,0,.3-.07.4-.2l7.62-9.93Z"/>
    <path class="cls-1" d="M251.09,67.82h-8.28c-.55,0-1,.45-1,1v6.27c0,.55.45,1,1,1h8.28c.64,0,1.16-.52,1.16-1.16v-5.95c0-.64-.52-1.16-1.16-1.16Z"/>
    <g>
      <path class="cls-2" d="M52.21,10.4s-7.09,10.41-18.3,12.38c-11.21,1.97-16.33,2.33-22.96,6.73,0,0-9.15,7.89-10.94,16.59,0,0,19.64-1.29,38.75-8.04,0,0,17.13-4.51,24.31-18.33l5.92,4.84.72-23.14-22.78,3.5,5.29,5.47Z"/>
      <path class="cls-1" d="M23.03,44.43c-6.42,2.45-7.74,9.02-4.72,15.4,7.75,20.82,43.05,21.95,51.44.81-5-1.53-10-3.06-15-4.58-4.07,5.78-9.44,6.18-12.51-.78-.81-1.67-1.52-3.38-2.15-5.13-.61-1.29-.26-2.56.76-3.53,5.63-6.17,15.94-9.17,17.87-18.13-7.62,9.33-24.8,12.34-35.69,15.94Z"/>
      <path class="cls-1" d="M11.39,27.38c4.11-3.64,9.73-5.06,15.18-5.7,6.36-.75,14.21-.6,17.74-7.03,1.93-3.52,2.06-9.56-.96-12.59-1.69-1.69-4.17-1.87-6.33-1.05-5.85,2.22-9.02,7.55-12.06,12.31-2.05,3.22-4.63,6.07-7.52,8.56-2.08,1.8-4.01,3.69-6.07,5.51Z"/>
    </g>
  </g>
</svg>